<svg width="25" height="24" viewBox="0 0 25 24" fill="none" xmlns="http://www.w3.org/2000/svg">
<path d="M6.27083 20.4394L3.0625 19.7394C2.77083 19.681 2.5375 19.5301 2.3625 19.2867C2.1875 19.044 2.11944 18.7769 2.15833 18.4852L2.47917 15.1894L0.291667 12.681C0.0972222 12.4671 0 12.2144 0 11.9227C0 11.631 0.0972222 11.3782 0.291667 11.1644L2.47917 8.65602L2.15833 5.36019C2.11944 5.06852 2.1875 4.80135 2.3625 4.55869C2.5375 4.31524 2.77083 4.16435 3.0625 4.10602L6.27083 3.40602L7.9625 0.547685C8.11805 0.294907 8.33194 0.12963 8.60417 0.0518519C8.87639 -0.0259259 9.14861 -0.0162037 9.42083 0.0810185L12.4542 1.36435L15.4875 0.0810185C15.7597 -0.0162037 16.0319 -0.0259259 16.3042 0.0518519C16.5764 0.12963 16.7903 0.294907 16.9458 0.547685L18.6375 3.40602L21.8458 4.10602C22.1375 4.16435 22.3708 4.31524 22.5458 4.55869C22.7208 4.80135 22.7889 5.06852 22.75 5.36019L22.4292 8.65602L24.6167 11.1644C24.8111 11.3782 24.9083 11.631 24.9083 11.9227C24.9083 12.2144 24.8111 12.4671 24.6167 12.681L22.4292 15.1894L22.75 18.4852C22.7889 18.7769 22.7208 19.044 22.5458 19.2867C22.3708 19.5301 22.1375 19.681 21.8458 19.7394L18.6375 20.4394L16.9458 23.2977C16.7903 23.5505 16.5764 23.7157 16.3042 23.7935C16.0319 23.8713 15.7597 23.8616 15.4875 23.7644L12.4542 22.481L9.42083 23.7644C9.14861 23.8616 8.87639 23.8713 8.60417 23.7935C8.33194 23.7157 8.11805 23.5505 7.9625 23.2977L6.27083 20.4394ZM10.4125 15.2477C10.6264 15.4616 10.8986 15.5685 11.2292 15.5685C11.5597 15.5685 11.8319 15.4616 12.0458 15.2477L17.0042 10.2894C17.2375 10.056 17.3542 9.77874 17.3542 9.45752C17.3542 9.13708 17.2375 8.86019 17.0042 8.62685C16.7708 8.39352 16.4939 8.27685 16.1735 8.27685C15.8523 8.27685 15.575 8.39352 15.3417 8.62685L11.2292 12.7394L9.5375 11.0769C9.30417 10.863 9.02728 10.7607 8.70683 10.77C8.38561 10.7801 8.11806 10.8921 7.90417 11.106C7.69028 11.3199 7.58333 11.5921 7.58333 11.9227C7.58333 12.2532 7.69028 12.5255 7.90417 12.7394L10.4125 15.2477Z" fill="#6949FF"/>
</svg>
