<svg width="22" height="22" viewBox="0 0 22 22" fill="none" xmlns="http://www.w3.org/2000/svg">
<path fill-rule="evenodd" clip-rule="evenodd" d="M13.8604 4.29847C14.1921 4.30302 14.5247 4.30758 14.8584 4.311C18.4438 4.311 21.058 6.86716 21.058 10.3971V14.9313C21.058 18.4612 18.4438 21.0174 14.8584 21.0174C13.4221 21.0478 11.9859 21.058 10.5393 21.058C9.09274 21.058 7.63583 21.0478 6.19959 21.0174C2.61416 21.0174 0 18.4612 0 14.9313V10.3971C0 6.86716 2.61416 4.311 6.20993 4.311C7.5635 4.29071 8.94808 4.27042 10.3533 4.27042V4.09798C10.3533 3.39808 9.76436 2.83004 9.06174 2.83004H8.03881C6.87122 2.83004 5.92061 1.89684 5.92061 0.760764C5.92061 0.34488 6.27192 0 6.69556 0C7.12953 0 7.47051 0.34488 7.47051 0.760764C7.47051 1.06507 7.72883 1.30851 8.03881 1.30851H9.06174C10.622 1.31866 11.8929 2.56631 11.9032 4.08784V4.28057C12.5546 4.28057 13.206 4.2895 13.8604 4.29847ZM9.32003 13.4198H8.23511V14.4951C8.23511 14.9109 7.8838 15.2558 7.46016 15.2558C7.02619 15.2558 6.68521 14.9109 6.68521 14.4951V13.4198H5.58995C5.16631 13.4198 4.815 13.0851 4.815 12.6591C4.815 12.2432 5.16631 11.8983 5.58995 11.8983H6.68521V10.8332C6.68521 10.4174 7.02619 10.0725 7.46016 10.0725C7.8838 10.0725 8.23511 10.4174 8.23511 10.8332V11.8983H9.32003C9.74367 11.8983 10.095 12.2432 10.095 12.6591C10.095 13.0851 9.74367 13.4198 9.32003 13.4198ZM13.7114 11.7055H13.8147C14.2384 11.7055 14.5897 11.3708 14.5897 10.9448C14.5897 10.5289 14.2384 10.184 13.8147 10.184H13.7114C13.2774 10.184 12.9364 10.5289 12.9364 10.9448C12.9364 11.3708 13.2774 11.7055 13.7114 11.7055ZM15.4783 15.1949H15.5816C16.0052 15.1949 16.3565 14.8602 16.3565 14.4342C16.3565 14.0183 16.0052 13.6734 15.5816 13.6734H15.4783C15.0433 13.6734 14.7033 14.0183 14.7033 14.4342C14.7033 14.8602 15.0433 15.1949 15.4783 15.1949Z" fill="#E0E0E0"/>
</svg>
