<svg width="32" height="32" viewBox="0 0 32 32" fill="none" xmlns="http://www.w3.org/2000/svg">
<g clip-path="url(#clip0_2380_4271)">
<path d="M23.3173 23.3163C25.1322 21.4982 26.2052 19.0695 26.3272 16.5034C26.4492 13.9374 25.6116 11.4178 23.9774 9.43565C22.3432 7.45347 20.0297 6.15068 17.4874 5.78111C14.9452 5.41154 12.3565 6.00167 10.2256 7.43652C8.09467 8.87136 6.57429 11.0481 5.96064 13.5427C5.347 16.0373 5.68406 18.671 6.90614 20.9306C8.12823 23.1903 10.1478 24.914 12.5714 25.766C14.9949 26.6179 17.6489 26.5371 20.0161 25.5392C21.2493 25.0176 22.3702 24.2628 23.3173 23.3163ZM15.9771 7.33999C18.2675 7.31491 20.4741 8.20072 22.1114 9.80257C23.7487 11.4044 24.6827 13.5911 24.7078 15.8815C24.7329 18.172 23.847 20.3786 22.2452 22.0159C20.6433 23.6532 18.4567 24.5871 16.1662 24.6122L15.9771 24.6122L15.9771 7.33999Z" fill="#6949FF"/>
<path d="M15.9956 -0.000181708C19.1618 -0.00205063 22.2575 0.935261 24.8909 2.69316C27.5243 4.45107 29.5771 6.95057 30.7897 9.87544C32.0022 12.8003 32.3199 16.0191 31.7027 19.1246C31.0854 22.2301 29.561 25.0827 27.3221 27.3216C25.0832 29.5605 22.2306 31.085 19.1251 31.7022C16.0196 32.3195 12.8008 32.0017 9.87592 30.7892C6.95106 29.5766 4.45155 27.5238 2.69365 24.8904C0.935748 22.257 -0.0015629 19.1613 0.000306576 15.9951C0.00781046 11.7552 1.69543 7.69108 4.6935 4.69301C7.69157 1.69494 11.7557 0.00732143 15.9956 -0.000181708ZM15.9956 29.4459C18.6559 29.4459 21.2565 28.657 23.4684 27.179C25.6804 25.701 27.4044 23.6003 28.4225 21.1425C29.4405 18.6847 29.7069 15.9802 29.1879 13.371C28.6689 10.7618 27.3878 8.36508 25.5067 6.48395C23.6256 4.60283 21.2289 3.32176 18.6197 2.80276C16.0105 2.28376 13.306 2.55013 10.8482 3.56819C8.39038 4.58625 6.28965 6.31027 4.81166 8.52223C3.33367 10.7342 2.5448 13.3348 2.5448 15.9951C2.5498 19.5609 3.96854 22.9793 6.48997 25.5007C9.01139 28.0221 12.4297 29.4409 15.9956 29.4459Z" fill="#6949FF"/>
</g>
<defs>
<clipPath id="clip0_2380_4271">
<rect width="32" height="32" fill="white" transform="translate(32 32) rotate(-180)"/>
</clipPath>
</defs>
</svg>
