<svg width="1312" height="557" viewBox="0 0 1312 557" fill="none" xmlns="http://www.w3.org/2000/svg">
<path d="M924.864 1341.48C820.499 1344.79 592.239 1275.92 514.121 974.001C416.472 596.601 567.616 160.196 368.336 175.669C169.055 191.141 22.2246 169.747 92.9381 18.452C163.652 -132.843 462.851 -290.774 226.871 -534.112M954.621 1328.37C850.256 1331.67 621.996 1262.81 543.878 960.885C446.23 583.485 597.374 147.079 398.093 162.552C198.813 178.025 51.9819 156.63 122.695 5.33606C193.409 -145.959 492.608 -303.89 256.628 -547.228M990.33 1312.63C885.965 1315.93 657.705 1247.07 579.586 945.145C481.938 567.746 633.082 131.34 433.802 146.813C234.521 162.286 87.6906 140.891 158.404 -10.404C229.118 -161.699 528.317 -319.63 292.337 -562.968M1026.04 1296.89C921.674 1300.19 693.414 1231.33 615.295 929.406C517.647 552.006 668.791 115.6 469.511 131.073C270.23 146.546 123.399 125.151 194.113 -26.144C264.826 -177.438 564.026 -335.369 328.046 -578.707M1061.75 1281.15C957.382 1284.45 729.123 1215.59 651.004 913.666C553.356 536.267 704.5 99.8608 505.219 115.334C305.939 130.807 159.108 109.412 229.822 -41.883C300.535 -193.178 599.734 -351.109 363.755 -594.447M1097.46 1265.41C993.091 1268.72 764.831 1199.85 686.713 897.927C589.064 520.527 740.208 84.1214 540.928 99.5942C341.647 115.067 194.817 93.6723 265.53 -57.6219C336.244 -208.917 635.443 -366.848 399.463 -610.186M1133.16 1249.67C1028.8 1252.98 800.54 1184.11 722.421 882.187C624.773 504.788 775.917 68.382 576.637 83.8548C377.356 99.3277 230.525 77.9328 301.239 -73.3619C371.952 -224.657 671.152 -382.588 435.172 -625.926M1168.87 1233.93C1064.51 1237.24 836.249 1168.37 758.13 866.448C660.482 489.048 811.626 52.6426 612.346 68.1154C413.065 83.5884 266.234 62.1933 336.948 -89.101C407.661 -240.396 706.861 -398.327 470.881 -641.665M1204.58 1218.19C1100.22 1221.5 871.957 1152.63 793.839 850.708C696.191 473.309 847.335 36.903 648.054 52.3756C448.774 67.8486 301.943 46.4537 372.656 -104.841C443.37 -256.136 742.569 -414.067 506.589 -657.405M1240.29 1202.45C1135.93 1205.76 907.666 1136.89 829.547 834.969C731.899 457.569 883.043 21.163 683.763 36.636C484.482 52.1091 337.652 30.7141 408.365 -120.58C479.078 -271.875 778.278 -429.806 542.298 -673.144M1276 1186.71C1171.63 1190.02 943.375 1121.15 865.256 819.229C767.608 441.83 918.752 5.42403 719.471 20.897C520.191 36.37 373.36 14.9751 444.074 -136.32C514.787 -287.615 813.987 -445.546 578.007 -688.884M1305.48 1174.37C1201.11 1177.67 972.854 1108.81 894.735 806.885C797.087 429.485 948.231 -6.921 748.95 8.552C549.67 24.025 402.839 2.63007 473.553 -148.664C544.266 -299.959 843.465 -457.89 607.486 -701.228M1335.24 1161.25C1230.87 1164.56 1002.61 1095.69 924.492 793.769C826.844 416.369 977.988 -20.037 778.708 -4.56396C579.427 10.909 432.596 -10.486 503.31 -161.781C574.023 -313.075 873.223 -471.006 637.243 -714.344M1370.94 1145.51C1266.58 1148.82 1038.32 1079.95 960.201 778.029C862.553 400.629 1013.7 -35.776 814.416 -20.303C615.136 -4.83098 468.305 -26.226 539.018 -177.52C609.732 -328.815 908.931 -486.746 672.952 -730.084M1406.65 1129.77C1302.29 1133.08 1074.03 1064.21 995.91 762.289C898.261 384.89 1049.4 -51.516 850.125 -36.043C650.845 -20.57 504.014 -41.965 574.727 -193.26C645.441 -344.554 944.64 -502.486 708.66 -745.824M1442.36 1114.03C1338 1117.34 1109.74 1048.47 1031.62 746.55C933.97 369.15 1085.11 -67.255 885.834 -51.783C686.553 -36.31 539.723 -57.705 610.436 -208.999C681.149 -360.294 980.349 -518.225 744.369 -761.563M1478.07 1098.29C1373.71 1101.6 1145.45 1032.73 1067.33 730.811C969.679 353.411 1120.82 -82.995 921.542 -67.522C722.262 -52.049 575.431 -73.444 646.145 -224.739C716.858 -376.033 1016.06 -533.964 780.078 -777.302M1513.78 1082.55C1409.41 1085.86 1181.15 1016.99 1103.04 715.071C1005.39 337.671 1156.53 -98.734 957.251 -83.262C757.971 -67.789 611.14 -89.184 681.853 -240.478C752.567 -391.773 1051.77 -549.704 815.786 -793.042M1549.49 1066.81C1445.12 1070.12 1216.86 1001.25 1138.74 699.332C1041.1 321.932 1192.24 -114.474 992.96 -99.001C793.679 -83.528 646.849 -104.923 717.562 -256.218C788.276 -407.512 1087.47 -565.443 851.495 -808.781M1585.2 1051.07C1480.83 1054.38 1252.57 985.512 1174.45 683.592C1076.8 306.192 1227.95 -130.214 1028.67 -114.741C829.388 -99.268 682.557 -120.663 753.271 -271.957C823.984 -423.252 1123.18 -581.183 887.204 -824.521M1620.91 1035.33C1516.54 1038.64 1288.28 969.772 1210.16 667.852C1112.51 290.453 1263.66 -145.953 1064.38 -130.48C865.097 -115.007 718.266 -136.402 788.979 -287.697C859.693 -438.991 1158.89 -596.922 922.912 -840.261M1656.61 1019.59C1552.25 1022.9 1323.99 954.033 1245.87 652.113C1148.22 274.713 1299.37 -161.692 1100.09 -146.22C900.805 -130.747 753.975 -152.142 824.688 -303.436C895.402 -454.731 1194.6 -612.662 958.621 -856M542.949 1509.6C438.584 1512.91 210.324 1444.04 132.205 1142.12C34.5571 764.718 185.701 328.312 -13.5791 343.785C-212.86 359.258 -359.69 337.863 -288.977 186.568C-218.263 35.2741 80.9359 -122.657 -155.044 -365.995M572.706 1496.48C468.341 1499.79 240.081 1430.92 161.963 1129C64.3143 751.602 215.459 315.196 16.1779 330.669C-183.102 346.142 -329.933 324.747 -259.22 173.452C-188.506 22.157 110.693 -135.774 -125.287 -379.112M608.415 1480.74C504.05 1484.05 275.79 1415.18 197.671 1113.26C100.023 735.862 251.167 299.457 51.8866 314.929C-147.394 330.402 -294.225 309.007 -223.511 157.713C-152.798 6.41805 146.402 -151.513 -89.5781 -394.851M644.124 1465C539.759 1468.31 311.499 1399.44 233.38 1097.52C135.732 720.123 286.876 283.717 87.5954 299.19C-111.685 314.663 -258.516 293.268 -187.802 141.973C-117.089 -9.32198 182.111 -167.253 -53.8691 -410.591M679.832 1449.26C575.467 1452.57 347.207 1383.7 269.089 1081.78C171.441 704.383 322.585 267.977 123.304 283.45C-75.9761 298.923 -222.807 277.528 -152.094 126.234C-81.3801 -25.061 217.819 -182.992 -18.1601 -426.33M715.541 1433.53C611.176 1436.83 382.916 1367.96 304.797 1066.04C207.149 688.644 358.293 252.238 159.013 267.711C-40.2681 283.184 -187.098 261.789 -116.385 110.494C-45.6711 -40.801 253.528 -198.732 17.5481 -442.07M751.25 1417.79C646.884 1421.09 418.625 1352.22 340.506 1050.3C242.858 672.904 394.002 236.499 194.721 251.971C-4.55908 267.444 -151.39 246.049 -80.6761 94.7546C-9.96309 -56.54 289.237 -214.471 53.2567 -457.809M786.959 1402.05C682.593 1405.35 454.334 1336.49 376.215 1034.56C278.567 657.165 429.711 220.759 230.43 236.232C31.1498 251.705 -115.681 230.31 -44.9671 79.0152C25.746 -72.279 324.946 -230.211 88.9656 -473.549M822.667 1386.31C718.302 1389.61 490.042 1320.75 411.924 1018.82C314.275 641.425 465.419 205.019 266.139 220.492C66.8584 235.965 -79.9721 214.57 -9.25909 63.2755C61.4546 -88.019 360.654 -245.95 124.674 -489.288M858.376 1370.57C754.011 1373.87 525.751 1305.01 447.632 1003.08C349.984 625.686 501.128 189.28 301.848 204.753C102.567 220.226 -44.2641 198.831 26.4498 47.536C97.1632 -103.759 396.363 -261.69 160.383 -505.028M894.084 1354.83C789.719 1358.13 561.459 1289.27 483.341 987.346C385.693 609.946 536.837 173.54 337.556 189.013C138.276 204.486 -8.55508 183.091 62.1584 31.797C132.872 -119.498 432.071 -277.429 196.092 -520.767" stroke="#6949FF" stroke-opacity="0.2" stroke-width="1.00069"/>
</svg>
