<svg width="338" height="339" viewBox="0 0 338 339" fill="none" xmlns="http://www.w3.org/2000/svg">
<rect x="1.51168" y="1.51168" width="333.577" height="335.592" rx="14.6129" stroke="#6949FF" stroke-width="3.02335"/>
<mask id="path-2-inside-1_2225_9444" fill="white">
<path d="M112.277 113.151H225.149V226.023H112.277V113.151Z"/>
</mask>
<path d="M112.277 113.151H225.149V226.023H112.277V113.151Z" fill="#A592FF"/>
<path d="M225.149 226.023V229.046H228.173V226.023H225.149ZM112.277 226.023H109.254V229.046H112.277V226.023ZM225.149 113.151H222.126V226.023H225.149H228.173V113.151H225.149ZM225.149 226.023V222.999H112.277V226.023V229.046H225.149V226.023ZM112.277 226.023H115.301V113.151H112.277H109.254V226.023H112.277Z" fill="#6949FF" mask="url(#path-2-inside-1_2225_9444)"/>
<mask id="path-4-inside-2_2225_9444" fill="white">
<path d="M3.03516 15.3413C3.03516 8.32582 8.72229 2.63867 15.7377 2.63867H112.277V114.421H3.03516V15.3413Z"/>
</mask>
<path d="M3.03516 15.3413C3.03516 8.32582 8.72229 2.63867 15.7377 2.63867H112.277V114.421H3.03516V15.3413Z" fill="#A592FF"/>
<path d="M3.03516 2.63867H112.277H3.03516ZM112.277 117.445H3.03516V111.398H112.277V117.445ZM3.03516 114.421V2.63867V114.421ZM112.277 2.63867V114.421V2.63867Z" fill="#6949FF" mask="url(#path-4-inside-2_2225_9444)"/>
<line x1="112.654" y1="112.784" x2="4.6822" y2="6.08282" stroke="#6949FF" stroke-width="2.54051"/>
<path d="M26.6112 92.6919V78.0077H24.3756L25.2139 74.9083H29.7107V92.6919H26.6112ZM35.4288 92.6919L38.8458 86.7852C38.0074 86.836 37.2072 86.7217 36.445 86.4422C35.6913 86.1628 35.0181 85.7478 34.4253 85.1974C33.8325 84.6469 33.3625 83.9949 33.0153 83.2412C32.6766 82.4875 32.5072 81.6703 32.5072 80.7896C32.5072 79.9343 32.6681 79.134 32.9899 78.3888C33.3117 77.6351 33.7563 76.9746 34.3237 76.4072C34.8995 75.8314 35.5601 75.3825 36.3053 75.0607C37.059 74.7389 37.8677 74.578 38.7315 74.578C39.8578 74.578 40.8867 74.8575 41.8182 75.4164C42.7582 75.9753 43.5076 76.7248 44.0665 77.6648C44.6339 78.6047 44.9176 79.6464 44.9176 80.7896C44.9176 81.357 44.8456 81.8947 44.7017 82.4028C44.5662 82.9025 44.3502 83.4106 44.0538 83.9271L39.0109 92.6919H35.4288ZM38.7061 83.9017C39.3158 83.9017 39.8535 83.7535 40.3193 83.4571C40.7935 83.1607 41.1619 82.7754 41.4244 82.3012C41.6869 81.827 41.8182 81.3189 41.8182 80.7769C41.8182 80.1841 41.6742 79.6548 41.3863 79.1891C41.0984 78.7148 40.7173 78.3465 40.2431 78.0839C39.7688 77.813 39.265 77.6775 38.7315 77.6775C38.1217 77.6775 37.5798 77.8257 37.1055 78.1221C36.6398 78.41 36.2714 78.7911 36.0004 79.2653C35.7294 79.7395 35.5939 80.2434 35.5939 80.7769C35.5939 81.3443 35.7294 81.8651 36.0004 82.3393C36.2799 82.8135 36.6525 83.1946 37.1182 83.4825C37.5925 83.762 38.1217 83.9017 38.7061 83.9017Z" fill="#1F222A"/>
<path d="M71.0702 43.1519V28.4677H68.8346L69.6729 25.3683H74.1696V43.1519H71.0702ZM83.1904 43.4821C82.0472 43.4821 81.0141 43.2069 80.091 42.6565C79.168 42.0975 78.4355 41.3566 77.8935 40.4335C77.36 39.5105 77.0932 38.4985 77.0932 37.3976H80.1926C80.1926 37.948 80.3281 38.4519 80.5991 38.9092C80.8701 39.358 81.23 39.7179 81.6788 39.9889C82.1361 40.2514 82.64 40.3827 83.1904 40.3827C83.7409 40.3827 84.2405 40.2514 84.6894 39.9889C85.1382 39.7179 85.4981 39.358 85.7691 38.9092C86.0401 38.4519 86.1756 37.948 86.1756 37.3976C86.1756 36.8471 86.057 36.3433 85.8199 35.886C85.5912 35.4202 85.2144 35.0519 84.6894 34.7809C84.1728 34.5014 83.4868 34.3617 82.6315 34.3617H78.0586L79.9386 25.3683H88.678V28.4677H82.4537L81.8821 31.2623L83.1396 31.275C84.3421 31.3173 85.4049 31.6095 86.328 32.1514C87.251 32.6934 87.9708 33.4217 88.4874 34.3363C89.0125 35.2424 89.275 36.2628 89.275 37.3976C89.275 38.2275 89.1183 39.0108 88.805 39.7476C88.4917 40.4843 88.0555 41.1321 87.4966 41.6911C86.9377 42.25 86.2899 42.6903 85.5531 43.0121C84.8248 43.3255 84.0373 43.4821 83.1904 43.4821Z" fill="#1F222A"/>
<mask id="path-9-inside-3_2225_9444" fill="white">
<path d="M224.061 226.204H337.113V320.591C337.113 329.497 329.894 336.716 320.989 336.716H224.061V226.204Z"/>
</mask>
<path d="M224.061 226.204H337.113V320.591C337.113 329.497 329.894 336.716 320.989 336.716H224.061V226.204Z" fill="#A592FF"/>
<path d="M224.061 226.204H337.113H224.061ZM337.113 336.716H224.061H337.113ZM224.061 336.716V226.204V336.716ZM340.137 226.204V317.568C340.137 328.143 331.564 336.716 320.989 336.716V336.716C328.224 336.716 334.09 329.497 334.09 320.591V226.204H340.137Z" fill="#6949FF" mask="url(#path-9-inside-3_2225_9444)"/>
<line x1="331.14" y1="333.809" x2="223.169" y2="227.107" stroke="#6949FF" stroke-width="2.54051"/>
<path d="M248.906 316.257V301.573H246.671L247.509 298.474H252.006V316.257H248.906ZM257.292 316.257V301.573H255.056L255.895 298.474H260.391V316.257H257.292Z" fill="#1F222A"/>
<path d="M292.794 264.507C291.718 264.507 290.749 264.252 289.885 263.744C289.021 263.236 288.335 262.555 287.827 261.699C287.319 260.835 287.065 259.879 287.065 258.828H290.164C290.164 259.303 290.274 259.735 290.495 260.124C290.723 260.514 291.037 260.827 291.435 261.064C291.833 261.293 292.286 261.407 292.794 261.407C293.26 261.407 293.691 261.293 294.089 261.064C294.496 260.827 294.822 260.514 295.068 260.124C295.313 259.735 295.436 259.303 295.436 258.828C295.436 258.21 295.271 257.698 294.94 257.291C294.61 256.877 294.149 256.567 293.556 256.364C292.972 256.161 292.29 256.059 291.511 256.059V253.671C292.561 253.671 293.391 253.472 294 253.074C294.619 252.676 294.928 252.092 294.928 251.321C294.928 250.923 294.826 250.559 294.623 250.229C294.42 249.899 294.149 249.636 293.81 249.441C293.48 249.238 293.116 249.136 292.718 249.136C292.311 249.136 291.917 249.238 291.536 249.441C291.155 249.636 290.842 249.899 290.596 250.229C290.359 250.559 290.241 250.923 290.241 251.321H287.141C287.141 250.593 287.289 249.911 287.586 249.276C287.882 248.633 288.289 248.069 288.805 247.587C289.33 247.104 289.923 246.727 290.583 246.456C291.253 246.177 291.951 246.037 292.679 246.037C293.636 246.037 294.521 246.274 295.334 246.748C296.147 247.223 296.799 247.858 297.29 248.654C297.782 249.45 298.027 250.339 298.027 251.321C298.027 252.007 297.866 252.68 297.545 253.341C297.223 254.002 296.765 254.467 296.173 254.738C296.689 254.925 297.121 255.238 297.468 255.678C297.815 256.11 298.078 256.606 298.256 257.164C298.442 257.715 298.535 258.27 298.535 258.828C298.535 259.87 298.273 260.823 297.748 261.687C297.223 262.542 296.524 263.228 295.652 263.744C294.788 264.252 293.835 264.507 292.794 264.507Z" fill="#1F222A"/>
<mask id="path-14-inside-4_2225_9444" fill="white">
<path d="M0 113.544H112.872V226.416H0V113.544Z"/>
</mask>
<path d="M0 226.416H-3.02335V229.439H0V226.416ZM112.872 226.416V223.392H0V226.416V229.439H112.872V226.416ZM0 226.416H3.02335V113.544H0H-3.02335V226.416H0Z" fill="#6949FF" mask="url(#path-14-inside-4_2225_9444)"/>
<mask id="path-16-inside-5_2225_9444" fill="white">
<path d="M223.729 113.544H336.6V226.416H223.729V113.544Z"/>
</mask>
<path d="M336.6 226.416V229.439H339.624V226.416H336.6ZM336.6 113.544H333.577V226.416H336.6H339.624V113.544H336.6ZM336.6 226.416V223.392H223.729V226.416V229.439H336.6V226.416Z" fill="#6949FF" mask="url(#path-16-inside-5_2225_9444)"/>
<mask id="path-18-inside-6_2225_9444" fill="white">
<path d="M112.199 225.072H225.071V337.944H112.199V225.072Z"/>
</mask>
<path d="M225.071 225.072H222.048V337.944H225.071H228.094V225.072H225.071ZM112.199 337.944H115.223V225.072H112.199H109.176V337.944H112.199Z" fill="#6949FF" mask="url(#path-18-inside-6_2225_9444)"/>
<mask id="path-20-inside-7_2225_9444" fill="white">
<path d="M112.277 2.63867H225.149V115.511H112.277V2.63867Z"/>
</mask>
<path d="M225.149 115.511V118.534H228.173V115.511H225.149ZM112.277 115.511H109.254V118.534H112.277V115.511ZM225.149 2.63867H222.126V115.511H225.149H228.173V2.63867H225.149ZM225.149 115.511V112.487H112.277V115.511V118.534H225.149V115.511ZM112.277 115.511H115.301V2.63867H112.277H109.254V115.511H112.277Z" fill="#6949FF" mask="url(#path-20-inside-7_2225_9444)"/>
<mask id="path-22-inside-8_2225_9444" fill="white">
<path d="M223.729 2.01562H323.898C330.913 2.01562 336.6 7.70276 336.6 14.7182V114.887H223.729V2.01562Z"/>
</mask>
<path d="M223.729 2.01562H336.6H223.729ZM339.624 117.911H223.729V111.864H333.577L339.624 117.911ZM223.729 114.887V2.01562V114.887ZM323.898 2.01562C332.583 2.01562 339.624 9.05636 339.624 17.7415V117.911L333.577 111.864V14.7182C333.577 7.70276 329.243 2.01562 323.898 2.01562V2.01562Z" fill="#6949FF" mask="url(#path-22-inside-8_2225_9444)"/>
<mask id="path-24-inside-9_2225_9444" fill="white">
<path d="M0 225.072H112.872V321.82C112.872 330.725 105.653 337.944 96.7473 337.944H16.1246C7.21922 337.944 0 330.725 0 321.82V225.072Z"/>
</mask>
<path d="M0 225.072H112.872H0ZM112.872 337.944H0H112.872ZM16.1246 337.944C5.54946 337.944 -3.02335 329.371 -3.02335 318.796V225.072H3.02335V321.82C3.02335 330.725 8.88896 337.944 16.1246 337.944V337.944ZM112.872 225.072V337.944V225.072Z" fill="#6949FF" mask="url(#path-24-inside-9_2225_9444)"/>
<path d="M167.154 80.485C164.41 80.485 161.931 79.8245 159.715 78.5034C157.5 77.162 155.742 75.3837 154.441 73.1683C153.161 70.953 152.521 68.5243 152.521 65.8822H159.959C159.959 67.2032 160.285 68.4125 160.935 69.51C161.585 70.5872 162.449 71.451 163.526 72.1013C164.624 72.7314 165.833 73.0464 167.154 73.0464C168.475 73.0464 169.674 72.7314 170.751 72.1013C171.829 71.451 172.692 70.5872 173.343 69.51C173.993 68.4125 174.318 67.2032 174.318 65.8822C174.318 64.5611 174.034 63.3518 173.465 62.2543C172.916 61.1365 172.012 60.2524 170.751 59.602C169.512 58.9313 167.865 58.596 165.813 58.596H154.838L159.35 37.0118H180.324V44.4504H165.386L164.014 51.1573L167.032 51.1878C169.918 51.2894 172.469 51.9906 174.684 53.2914C176.9 54.5921 178.627 56.34 179.867 58.535C181.127 60.7097 181.757 63.1587 181.757 65.8822C181.757 67.8739 181.381 69.7539 180.629 71.5221C179.877 73.2903 178.83 74.8451 177.489 76.1865C176.148 77.5279 174.593 78.5847 172.825 79.357C171.077 80.109 169.187 80.485 167.154 80.485Z" fill="#876DFF"/>
<path d="M268.468 79.6924L276.669 65.5163C274.657 65.6383 272.736 65.3639 270.907 64.6932C269.098 64.0225 267.482 63.0266 266.06 61.7056C264.637 60.3845 263.509 58.8195 262.676 57.0107C261.863 55.2018 261.456 53.2406 261.456 51.1269C261.456 49.0741 261.842 47.1535 262.615 45.365C263.387 43.5561 264.454 41.9708 265.816 40.6091C267.198 39.2271 268.783 38.1499 270.571 37.3776C272.38 36.6053 274.321 36.2191 276.394 36.2191C279.097 36.2191 281.567 36.8898 283.802 38.2312C286.058 39.5726 287.857 41.3713 289.199 43.6273C290.56 45.8832 291.241 48.3831 291.241 51.1269C291.241 52.4886 291.068 53.7791 290.723 54.9986C290.398 56.1977 289.879 57.4172 289.168 58.6569L277.065 79.6924H268.468ZM276.333 58.596C277.797 58.596 279.087 58.2403 280.205 57.5289C281.343 56.8176 282.227 55.8929 282.857 54.7547C283.487 53.6166 283.802 52.3971 283.802 51.0964C283.802 49.6737 283.457 48.4034 282.766 47.2856C282.075 46.1474 281.16 45.2633 280.022 44.6333C278.884 43.9829 277.675 43.6577 276.394 43.6577C274.931 43.6577 273.63 44.0134 272.492 44.7248C271.374 45.4158 270.49 46.3304 269.84 47.4685C269.189 48.6067 268.864 49.816 268.864 51.0964C268.864 52.4581 269.189 53.708 269.84 54.8462C270.511 55.9843 271.405 56.8989 272.523 57.5899C273.661 58.2606 274.931 58.596 276.333 58.596Z" fill="#876DFF"/>
<path d="M280.236 191.475V181.14H262.066V173.671L278.498 148.794H287.674V173.702H291.272V181.14H287.674V191.475H280.236ZM270.693 173.671L280.236 173.702L280.205 158.946L270.693 173.671Z" fill="#876DFF"/>
<path d="M54.0291 191.475V156.233H48.6635L50.6756 148.794H61.4677V191.475H54.0291Z" fill="#876DFF"/>
<path d="M166.971 302.78C164.349 302.78 161.971 302.18 159.837 300.981C157.703 299.782 155.996 298.177 154.716 296.164C153.456 294.132 152.826 291.876 152.826 289.397C152.826 287.445 153.263 285.616 154.137 283.909C155.031 282.181 156.23 280.728 157.734 279.549C156.555 278.472 155.59 277.202 154.838 275.739C154.106 274.255 153.74 272.67 153.74 270.983C153.74 268.686 154.34 266.593 155.539 264.703C156.738 262.813 158.333 261.309 160.325 260.191C162.337 259.073 164.553 258.514 166.971 258.514C169.41 258.514 171.625 259.073 173.617 260.191C175.609 261.309 177.204 262.813 178.403 264.703C179.603 266.593 180.202 268.686 180.202 270.983C180.202 272.67 179.836 274.255 179.105 275.739C178.393 277.202 177.428 278.472 176.208 279.549C177.753 280.728 178.962 282.181 179.836 283.909C180.731 285.616 181.178 287.445 181.178 289.397C181.178 291.856 180.538 294.102 179.257 296.134C177.997 298.146 176.29 299.762 174.135 300.981C171.981 302.18 169.593 302.78 166.971 302.78ZM166.971 295.341C168.15 295.341 169.217 295.077 170.172 294.549C171.127 294 171.89 293.278 172.459 292.384C173.028 291.49 173.312 290.494 173.312 289.397C173.312 288.299 173.028 287.303 172.459 286.409C171.89 285.515 171.127 284.803 170.172 284.275C169.217 283.726 168.15 283.452 166.971 283.452C165.813 283.452 164.756 283.726 163.801 284.275C162.845 284.803 162.073 285.515 161.484 286.409C160.915 287.303 160.63 288.299 160.63 289.397C160.63 290.494 160.915 291.49 161.484 292.384C162.073 293.278 162.845 294 163.801 294.549C164.756 295.077 165.813 295.341 166.971 295.341ZM166.971 276.013C167.967 276.013 168.871 275.79 169.684 275.342C170.497 274.875 171.138 274.265 171.605 273.513C172.093 272.761 172.337 271.918 172.337 270.983C172.337 270.048 172.093 269.205 171.605 268.453C171.138 267.701 170.497 267.101 169.684 266.654C168.871 266.186 167.967 265.953 166.971 265.953C165.996 265.953 165.101 266.186 164.288 266.654C163.475 267.101 162.825 267.701 162.337 268.453C161.85 269.205 161.606 270.048 161.606 270.983C161.606 271.918 161.85 272.761 162.337 273.513C162.825 274.265 163.475 274.875 164.288 275.342C165.101 275.79 165.996 276.013 166.971 276.013Z" fill="#876DFF"/>
</svg>
