<svg width="338" height="339" viewBox="0 0 338 339" fill="none" xmlns="http://www.w3.org/2000/svg">
<rect x="112.725" y="113.933" width="110.22" height="110.22" fill="#A592FF"/>
<rect x="224.213" y="226.687" width="111.487" height="111.487" fill="#A592FF"/>
<rect x="1.26758" y="226.708" width="110.22" height="111.487" fill="#35383F"/>
<rect x="111.541" y="0.132324" width="111.487" height="112.754" fill="#35383F"/>
<rect y="112.688" width="111.487" height="111.487" fill="#35383F"/>
<rect x="225.562" width="110.22" height="112.754" fill="#35383F"/>
<path d="M55.4708 193.479C52.8964 193.479 50.5755 192.87 48.5079 191.654C46.4404 190.438 44.7985 188.806 43.5822 186.759C42.366 184.691 41.7579 182.401 41.7579 179.887H49.1768C49.1768 181.022 49.4404 182.056 49.9674 182.989C50.5147 183.921 51.2647 184.671 52.2174 185.239C53.1701 185.786 54.2546 186.06 55.4708 186.06C56.5856 186.06 57.6194 185.786 58.5721 185.239C59.5451 184.671 60.3255 183.921 60.9134 182.989C61.5012 182.056 61.7951 181.022 61.7951 179.887C61.7951 178.408 61.3998 177.181 60.6093 176.208C59.8188 175.215 58.714 174.475 57.2951 173.989C55.8965 173.502 54.2647 173.259 52.3998 173.259V167.543C54.9133 167.543 56.8998 167.066 58.3593 166.114C59.839 165.161 60.5789 163.762 60.5789 161.918C60.5789 160.965 60.3356 160.093 59.8492 159.303C59.3627 158.512 58.714 157.884 57.9032 157.418C57.1127 156.931 56.241 156.688 55.2883 156.688C54.3154 156.688 53.3728 156.931 52.4606 157.418C51.5485 157.884 50.7985 158.512 50.2106 159.303C49.6431 160.093 49.3593 160.965 49.3593 161.918H41.9404C41.9404 160.174 42.2951 158.543 43.0045 157.022C43.714 155.482 44.687 154.134 45.9235 152.978C47.1802 151.823 48.5991 150.921 50.1802 150.272C51.7816 149.603 53.4539 149.269 55.1971 149.269C57.4877 149.269 59.6059 149.837 61.5519 150.972C63.4978 152.107 65.0586 153.627 66.2343 155.533C67.41 157.438 67.9978 159.566 67.9978 161.918C67.9978 163.56 67.6127 165.171 66.8424 166.752C66.0721 168.333 64.9775 169.448 63.5586 170.097C64.7951 170.543 65.8289 171.293 66.66 172.347C67.4911 173.381 68.1194 174.566 68.5451 175.904C68.9911 177.222 69.214 178.549 69.214 179.887C69.214 182.381 68.5857 184.661 67.3289 186.729C66.0721 188.776 64.3998 190.418 62.312 191.654C60.2444 192.87 57.964 193.479 55.4708 193.479Z" fill="#F5F5F5"/>
<path d="M174.764 282.891L187.998 269.643C188.92 268.719 189.426 267.495 189.426 266.199C189.426 264.902 188.92 263.678 187.998 262.755C186.158 260.918 182.962 260.918 181.122 262.755L167.889 276.008L154.65 262.755C152.81 260.918 149.614 260.918 147.774 262.755C146.857 263.678 146.352 264.902 146.352 266.199C146.352 267.495 146.857 268.719 147.774 269.643L161.008 282.891L147.774 296.139C146.857 297.063 146.352 298.287 146.352 299.583C146.352 300.88 146.857 302.104 147.774 303.027C149.614 304.864 152.81 304.864 154.65 303.027L167.889 289.774L181.122 303.027C182.045 303.945 183.262 304.452 184.563 304.452C185.863 304.452 187.08 303.945 187.998 303.027C188.92 302.104 189.426 300.88 189.426 299.583C189.426 298.287 188.92 297.063 187.998 296.139L174.764 282.891Z" fill="#F5F5F5"/>
<path d="M47.4836 304.175L55.6627 290.036C53.6559 290.158 51.7404 289.884 49.916 289.215C48.112 288.546 46.5005 287.553 45.0816 286.236C43.6626 284.918 42.5376 283.357 41.7066 281.553C40.8957 279.749 40.4903 277.793 40.4903 275.685C40.4903 273.638 40.8755 271.722 41.6457 269.938C42.416 268.134 43.4802 266.553 44.8383 265.195C46.2167 263.817 47.7978 262.742 49.5816 261.972C51.3856 261.202 53.3214 260.817 55.389 260.817C58.085 260.817 60.5478 261.486 62.7775 262.823C65.0275 264.161 66.8215 265.955 68.1593 268.205C69.5174 270.455 70.1965 272.948 70.1965 275.685C70.1965 277.043 70.0242 278.33 69.6796 279.546C69.3552 280.742 68.8384 281.959 68.1289 283.195L56.0579 304.175H47.4836ZM55.3282 283.134C56.7877 283.134 58.0748 282.78 59.1897 282.07C60.3248 281.361 61.2066 280.438 61.835 279.303C62.4633 278.168 62.7775 276.952 62.7775 275.654C62.7775 274.236 62.4329 272.969 61.7438 271.854C61.0546 270.719 60.1424 269.837 59.0073 269.209C57.8721 268.56 56.666 268.236 55.389 268.236C53.9295 268.236 52.6323 268.59 51.4971 269.3C50.3822 269.989 49.5005 270.901 48.8518 272.036C48.2032 273.171 47.8789 274.377 47.8789 275.654C47.8789 277.013 48.2032 278.259 48.8518 279.394C49.5208 280.53 50.4127 281.442 51.5275 282.131C52.6627 282.8 53.9296 283.134 55.3282 283.134Z" fill="#F5F5F5"/>
<path d="M166.875 80.7251C164.139 80.7251 161.666 80.0663 159.456 78.7488C157.247 77.4109 155.494 75.6373 154.196 73.4278C152.919 71.2183 152.281 68.796 152.281 66.1609H159.7C159.7 67.4785 160.024 68.6846 160.673 69.7792C161.321 70.8535 162.183 71.715 163.257 72.3636C164.352 72.992 165.558 73.3062 166.875 73.3062C168.193 73.3062 169.389 72.992 170.463 72.3636C171.538 71.715 172.399 70.8535 173.048 69.7792C173.696 68.6846 174.021 67.4785 174.021 66.1609C174.021 64.8433 173.737 63.6373 173.169 62.5427C172.622 61.4278 171.72 60.546 170.463 59.8974C169.227 59.2285 167.585 58.894 165.538 58.894H154.592L159.092 37.3669H180.01V44.7859H165.112L163.744 51.4751L166.754 51.5055C169.632 51.6068 172.176 52.3062 174.385 53.6035C176.595 54.9008 178.318 56.644 179.554 58.8332C180.811 61.0021 181.44 63.4447 181.44 66.1609C181.44 68.1474 181.065 70.0224 180.315 71.7859C179.565 73.5494 178.521 75.1001 177.183 76.4379C175.845 77.7758 174.294 78.8298 172.531 79.6001C170.788 80.3501 168.902 80.7251 166.875 80.7251Z" fill="#F5F5F5"/>
<path d="M278.443 81.9917C275.869 81.9917 273.548 81.3836 271.481 80.1674C269.413 78.9512 267.771 77.3194 266.555 75.2721C265.339 73.2045 264.731 70.914 264.731 68.4005H272.15C272.15 69.5356 272.413 70.5694 272.94 71.5018C273.487 72.4343 274.237 73.1843 275.19 73.7518C276.143 74.2991 277.227 74.5728 278.443 74.5728C279.558 74.5728 280.592 74.2991 281.545 73.7518C282.518 73.1843 283.298 72.4343 283.886 71.5018C284.474 70.5694 284.768 69.5356 284.768 68.4005C284.768 66.9207 284.372 65.6944 283.582 64.7214C282.791 63.7282 281.687 62.9883 280.268 62.5018C278.869 62.0153 277.237 61.7721 275.372 61.7721V56.0559C277.886 56.0559 279.872 55.5795 281.332 54.6268C282.812 53.6741 283.552 52.2755 283.552 50.4309C283.552 49.4782 283.308 48.6065 282.822 47.816C282.335 47.0254 281.687 46.3971 280.876 45.9309C280.085 45.4444 279.214 45.2011 278.261 45.2011C277.288 45.2011 276.345 45.4444 275.433 45.9309C274.521 46.3971 273.771 47.0254 273.183 47.816C272.616 48.6065 272.332 49.4782 272.332 50.4309H264.913C264.913 48.6876 265.268 47.0559 265.977 45.5356C266.687 43.995 267.66 42.6471 268.896 41.4917C270.153 40.3363 271.572 39.4342 273.153 38.7856C274.754 38.1167 276.427 37.7822 278.17 37.7822C280.46 37.7822 282.579 38.3498 284.525 39.4849C286.47 40.62 288.031 42.1403 289.207 44.0457C290.383 45.9511 290.97 48.0795 290.97 50.4309C290.97 52.0728 290.585 53.6842 289.815 55.2653C289.045 56.8464 287.95 57.9613 286.531 58.6099C287.768 59.0559 288.802 59.8059 289.633 60.8599C290.464 61.8937 291.092 63.0795 291.518 64.4174C291.964 65.7349 292.187 67.0626 292.187 68.4005C292.187 70.8937 291.558 73.1741 290.302 75.2417C289.045 77.289 287.372 78.9309 285.285 80.1674C283.217 81.3836 280.937 81.9917 278.443 81.9917Z" fill="#F5F5F5"/>
<mask id="path-12-inside-1_2225_9482" fill="white">
<path d="M111.506 112.886H337.013V338.393H111.506V112.886Z"/>
</mask>
<path d="M111.506 112.886V110.352H108.972V112.886H111.506ZM111.506 112.886V115.42H337.013V112.886V110.352H111.506V112.886ZM111.506 338.393H114.04V112.886H111.506H108.972V338.393H111.506Z" fill="#616161" mask="url(#path-12-inside-1_2225_9482)"/>
</svg>
