<svg width="338" height="336" viewBox="0 0 338 336" fill="none" xmlns="http://www.w3.org/2000/svg">
<rect width="157.673" height="157.673" rx="11.8255" fill="#A592FF"/>
<path d="M55.1201 111.836V101.525C57.1698 99.9794 59.598 98.0716 62.4046 95.8011C65.2112 93.499 68.0966 91.0236 71.0609 88.3747C74.0251 85.6942 76.7686 83.0138 79.2914 80.3333C81.8142 77.6529 83.8639 75.0986 85.4407 72.6704C87.0489 70.2422 87.8531 68.1609 87.8531 66.4265C87.8531 64.5029 87.38 62.7528 86.434 61.176C85.488 59.5678 84.2266 58.2906 82.6498 57.3446C81.1046 56.3985 79.3702 55.9255 77.4466 55.9255C75.523 55.9255 73.7728 56.3985 72.1961 57.3446C70.6194 58.2906 69.358 59.5678 68.4119 61.176C67.4659 62.7528 66.9929 64.5029 66.9929 66.4265H55.4512C55.4512 62.264 56.4603 58.5271 58.4785 55.216C60.4968 51.8733 63.1614 49.2402 66.4726 47.3165C69.8152 45.3614 73.4733 44.3838 77.4466 44.3838C81.4831 44.3838 85.1568 45.3772 88.468 47.3639C91.7791 49.319 94.428 51.9679 96.4147 55.3106C98.4014 58.6533 99.3947 62.3586 99.3947 66.4265C99.3947 68.5709 99.0005 70.731 98.2122 72.9069C97.4238 75.0828 96.3201 77.2745 94.901 79.4819C93.482 81.6893 91.8107 83.9283 89.887 86.1988C87.9634 88.4377 85.8348 90.7398 83.5013 93.1048C81.1992 95.4384 78.7711 97.835 76.2168 100.295H99.7258V111.836H55.1201Z" fill="#1F222A"/>
<rect x="178.195" width="157.673" height="157.673" rx="11.8255" fill="#A592FF"/>
<path d="M256.669 113.066C252.443 113.066 248.565 112.01 245.033 109.897C241.501 107.784 238.678 104.962 236.566 101.43C234.453 97.8981 233.396 93.9878 233.396 89.6991C233.396 87.4917 233.649 85.4419 234.153 83.5499C234.689 81.6578 235.509 79.7499 236.613 77.8263L255.155 45.6137H268.542L256.101 67.1361C258.656 66.9469 261.115 67.1676 263.48 67.7983C265.845 68.429 268.037 69.4223 270.055 70.7783C272.074 72.1343 273.84 73.7741 275.353 75.6977C276.867 77.6213 278.034 79.7657 278.854 82.1308C279.705 84.4959 280.131 87.0187 280.131 89.6991C280.131 92.9156 279.516 95.9272 278.286 98.7338C277.088 101.54 275.416 104.032 273.272 106.207C271.128 108.352 268.636 110.039 265.798 111.269C262.96 112.467 259.917 113.066 256.669 113.066ZM256.669 101.525C258.971 101.525 261.021 100.973 262.818 99.869C264.616 98.7338 266.019 97.2674 267.028 95.4699C268.069 93.6725 268.589 91.7646 268.589 89.7464C268.589 87.5705 268.069 85.5838 267.028 83.7864C265.987 81.9889 264.568 80.5541 262.771 79.4819C261.005 78.4097 259.002 77.8736 256.764 77.8736C254.461 77.8736 252.412 78.4412 250.614 79.5765C248.848 80.6802 247.461 82.1308 246.452 83.9283C245.443 85.7257 244.938 87.6651 244.938 89.7464C244.938 91.9854 245.49 93.9878 246.594 95.7538C247.697 97.5197 249.132 98.923 250.898 99.9636C252.696 101.004 254.619 101.525 256.669 101.525Z" fill="#1F222A"/>
<rect y="177.673" width="157.673" height="157.673" rx="11.8255" fill="#A592FF"/>
<path d="M83.3121 289.51V273.474H55.1201V261.885L80.6159 223.287H94.8537V261.933H100.435V273.474H94.8537V289.51H83.3121ZM68.5065 261.885L83.3121 261.933L83.2648 239.039L68.5065 261.885Z" fill="#1F222A"/>
<rect x="178.195" y="177.673" width="157.673" height="157.673" rx="11.8255" fill="#C3B6FF"/>
<path d="M256.764 290.74C252.696 290.74 249.006 289.809 245.695 287.949C242.384 286.088 239.735 283.597 237.748 280.475C235.793 277.322 234.815 273.821 234.815 269.974C234.815 266.947 235.493 264.109 236.849 261.46C238.237 258.779 240.097 256.525 242.431 254.696C240.602 253.024 239.104 251.053 237.937 248.783C236.802 246.481 236.234 244.021 236.234 241.404C236.234 237.84 237.165 234.592 239.025 231.659C240.886 228.727 243.361 226.393 246.452 224.659C249.574 222.924 253.011 222.057 256.764 222.057C260.548 222.057 263.985 222.924 267.075 224.659C270.166 226.393 272.641 228.727 274.502 231.659C276.362 234.592 277.293 237.84 277.293 241.404C277.293 244.021 276.725 246.481 275.59 248.783C274.486 251.053 272.988 253.024 271.096 254.696C273.493 256.525 275.369 258.779 276.725 261.46C278.112 264.109 278.806 266.947 278.806 269.974C278.806 273.79 277.813 277.274 275.826 280.428C273.871 283.55 271.222 286.057 267.879 287.949C264.537 289.809 260.831 290.74 256.764 290.74ZM256.764 279.198C258.593 279.198 260.248 278.788 261.73 277.968C263.212 277.117 264.395 275.997 265.278 274.61C266.161 273.222 266.602 271.677 266.602 269.974C266.602 268.271 266.161 266.726 265.278 265.338C264.395 263.951 263.212 262.847 261.73 262.027C260.248 261.176 258.593 260.75 256.764 260.75C254.966 260.75 253.326 261.176 251.844 262.027C250.362 262.847 249.164 263.951 248.249 265.338C247.366 266.726 246.925 268.271 246.925 269.974C246.925 271.677 247.366 273.222 248.249 274.61C249.164 275.997 250.362 277.117 251.844 277.968C253.326 278.788 254.966 279.198 256.764 279.198ZM256.764 249.208C258.309 249.208 259.712 248.862 260.973 248.168C262.235 247.443 263.228 246.497 263.953 245.33C264.71 244.163 265.089 242.854 265.089 241.404C265.089 239.953 264.71 238.644 263.953 237.478C263.228 236.311 262.235 235.381 260.973 234.687C259.712 233.961 258.309 233.599 256.764 233.599C255.25 233.599 253.862 233.961 252.601 234.687C251.34 235.381 250.33 236.311 249.574 237.478C248.817 238.644 248.438 239.953 248.438 241.404C248.438 242.854 248.817 244.163 249.574 245.33C250.33 246.497 251.34 247.443 252.601 248.168C253.862 248.862 255.25 249.208 256.764 249.208Z" fill="#1F222A"/>
</svg>
