<svg width="337" height="339" viewBox="0 0 337 339" fill="none" xmlns="http://www.w3.org/2000/svg">
<rect x="1.51168" y="1.51168" width="333.577" height="335.592" rx="14.6129" stroke="#6949FF" stroke-width="3.02335"/>
<mask id="path-2-inside-1_2225_9426" fill="white">
<path d="M0 113.544H112.872V226.416H0V113.544Z"/>
</mask>
<path d="M0 226.416H-3.02335V229.439H0V226.416ZM112.872 226.416V223.392H0V226.416V229.439H112.872V226.416ZM0 226.416H3.02335V113.544H0H-3.02335V226.416H0Z" fill="#876DFF" mask="url(#path-2-inside-1_2225_9426)"/>
<mask id="path-4-inside-2_2225_9426" fill="white">
<path d="M223.729 113.544H336.6V226.416H223.729V113.544Z"/>
</mask>
<path d="M336.6 226.416V229.439H339.624V226.416H336.6ZM336.6 113.544H333.577V226.416H336.6H339.624V113.544H336.6ZM336.6 226.416V223.392H223.729V226.416V229.439H336.6V226.416Z" fill="#876DFF" mask="url(#path-4-inside-2_2225_9426)"/>
<mask id="path-6-inside-3_2225_9426" fill="white">
<path d="M112.199 225.072H225.071V337.944H112.199V225.072Z"/>
</mask>
<path d="M225.071 225.072H222.048V337.944H225.071H228.094V225.072H225.071ZM112.199 337.944H115.223V225.072H112.199H109.176V337.944H112.199Z" fill="#876DFF" mask="url(#path-6-inside-3_2225_9426)"/>
<mask id="path-8-inside-4_2225_9426" fill="white">
<path d="M112.199 2.01562H225.071V114.887H112.199V2.01562Z"/>
</mask>
<path d="M225.071 114.887V117.911H228.094V114.887H225.071ZM112.199 114.887H109.176V117.911H112.199V114.887ZM225.071 2.01562H222.048V114.887H225.071H228.094V2.01562H225.071ZM225.071 114.887V111.864H112.199V114.887V117.911H225.071V114.887ZM112.199 114.887H115.223V2.01562H112.199H109.176V114.887H112.199Z" fill="#876DFF" mask="url(#path-8-inside-4_2225_9426)"/>
<mask id="path-10-inside-5_2225_9426" fill="white">
<path d="M223.729 2.01562H336.6V114.887H223.729V2.01562Z"/>
</mask>
<path d="M336.6 114.887V117.911H339.624V114.887H336.6ZM336.6 2.01562H333.577V114.887H336.6H339.624V2.01562H336.6ZM336.6 114.887V111.864H223.729V114.887V117.911H336.6V114.887Z" fill="#876DFF" mask="url(#path-10-inside-5_2225_9426)"/>
<mask id="path-12-inside-6_2225_9426" fill="white">
<path d="M0 2.01562H112.872V114.887H0V2.01562Z"/>
</mask>
<path d="M112.872 114.887V111.864H0V114.887V117.911H112.872V114.887Z" fill="#876DFF" mask="url(#path-12-inside-6_2225_9426)"/>
<path d="M56.4369 88.1262C52.8089 88.1262 49.5302 87.2528 46.6009 85.506C43.6716 83.7323 41.347 81.3808 39.627 78.4515C37.934 75.5222 37.0874 72.3107 37.0874 68.8171H46.9234C46.9234 70.5639 47.3534 72.1629 48.2134 73.6141C49.0733 75.0385 50.2155 76.1806 51.6398 77.0406C53.091 77.8737 54.6901 78.2902 56.4369 78.2902C58.1837 78.2902 59.7693 77.8737 61.1936 77.0406C62.618 76.1806 63.7601 75.0385 64.6201 73.6141C65.4801 72.1629 65.9101 70.5639 65.9101 68.8171C65.9101 67.0702 65.5338 65.4712 64.7813 64.02C64.0557 62.5419 62.8598 61.3729 61.1936 60.5129C59.5543 59.6261 57.3775 59.1826 54.6632 59.1826H40.1511L46.1172 30.6422H73.8514V40.4782H54.0988L52.2848 49.3467L56.2756 49.387C60.0918 49.5213 63.4645 50.4485 66.3938 52.1685C69.3231 53.8884 71.6074 56.1996 73.2467 59.102C74.9129 61.9776 75.746 65.2159 75.746 68.8171C75.746 71.4507 75.2489 73.9366 74.2545 76.2747C73.2602 78.6127 71.8762 80.6686 70.1024 82.4423C68.3287 84.216 66.2729 85.6135 63.9348 86.6347C61.6236 87.629 59.1243 88.1262 56.4369 88.1262Z" fill="#A592FF"/>
<mask id="path-15-inside-7_2225_9426" fill="white">
<path d="M112.199 113.544H225.071V226.416H112.199V113.544Z"/>
</mask>
<path d="M225.071 226.416V229.439H228.094V226.416H225.071ZM112.199 226.416H109.176V229.439H112.199V226.416ZM225.071 113.544H222.048V226.416H225.071H228.094V113.544H225.071ZM225.071 226.416V223.392H112.199V226.416V229.439H225.071V226.416ZM112.199 226.416H115.223V113.544H112.199H109.176V226.416H112.199Z" fill="#876DFF" mask="url(#path-15-inside-7_2225_9426)"/>
<path d="M167.062 199.655C163.649 199.655 160.572 198.848 157.831 197.236C155.09 195.623 152.913 193.46 151.3 190.746C149.688 188.005 148.882 184.968 148.882 181.635H158.718C158.718 183.14 159.067 184.511 159.766 185.747C160.491 186.983 161.486 187.978 162.749 188.73C164.012 189.456 165.45 189.819 167.062 189.819C168.54 189.819 169.911 189.456 171.174 188.73C172.464 187.978 173.498 186.983 174.278 185.747C175.057 184.511 175.447 183.14 175.447 181.635C175.447 179.674 174.923 178.048 173.875 176.758C172.827 175.441 171.362 174.46 169.481 173.815C167.626 173.17 165.463 172.847 162.991 172.847V165.269C166.323 165.269 168.957 164.637 170.892 163.374C172.853 162.111 173.834 160.257 173.834 157.811C173.834 156.548 173.512 155.393 172.867 154.345C172.222 153.296 171.362 152.463 170.287 151.845C169.239 151.2 168.083 150.878 166.82 150.878C165.53 150.878 164.281 151.2 163.071 151.845C161.862 152.463 160.867 153.296 160.088 154.345C159.336 155.393 158.959 156.548 158.959 157.811H149.123C149.123 155.5 149.594 153.337 150.534 151.321C151.475 149.279 152.765 147.492 154.404 145.96C156.07 144.428 157.952 143.232 160.048 142.372C162.171 141.485 164.388 141.042 166.699 141.042C169.736 141.042 172.544 141.794 175.124 143.299C177.704 144.804 179.774 146.82 181.332 149.346C182.891 151.872 183.67 154.694 183.67 157.811C183.67 159.988 183.16 162.125 182.138 164.221C181.117 166.317 179.666 167.795 177.785 168.655C179.424 169.246 180.795 170.241 181.897 171.638C182.998 173.009 183.832 174.581 184.396 176.355C184.987 178.101 185.283 179.862 185.283 181.635C185.283 184.941 184.45 187.964 182.783 190.705C181.117 193.42 178.9 195.597 176.132 197.236C173.391 198.848 170.368 199.655 167.062 199.655Z" fill="#A592FF"/>
<mask id="path-18-inside-8_2225_9426" fill="white">
<path d="M223.729 225.072H336.6V321.82C336.6 330.725 329.381 337.944 320.476 337.944H239.853C230.948 337.944 223.729 330.725 223.729 321.82V225.072Z"/>
</mask>
<path d="M223.729 225.072H336.6H223.729ZM336.6 337.944H223.729H336.6ZM223.729 337.944V225.072V337.944ZM339.624 225.072V318.796C339.624 329.371 331.051 337.944 320.476 337.944V337.944C327.711 337.944 333.577 330.725 333.577 321.82V225.072H339.624Z" fill="#876DFF" mask="url(#path-18-inside-8_2225_9426)"/>
<path d="M270.356 310.135L281.2 291.39C278.54 291.551 276 291.188 273.581 290.302C271.189 289.415 269.053 288.098 267.172 286.351C265.291 284.604 263.799 282.535 262.697 280.143C261.622 277.751 261.085 275.158 261.085 272.363C261.085 269.649 261.595 267.109 262.617 264.744C263.638 262.352 265.049 260.256 266.849 258.456C268.677 256.628 270.773 255.204 273.138 254.183C275.53 253.161 278.096 252.651 280.837 252.651C284.412 252.651 287.677 253.538 290.633 255.311C293.616 257.085 295.994 259.463 297.768 262.446C299.569 265.429 300.469 268.735 300.469 272.363C300.469 274.164 300.24 275.87 299.784 277.483C299.354 279.068 298.668 280.681 297.728 282.32L281.724 310.135H270.356ZM280.757 282.239C282.692 282.239 284.398 281.769 285.876 280.828C287.381 279.888 288.55 278.665 289.383 277.16C290.216 275.655 290.633 274.043 290.633 272.323C290.633 270.441 290.176 268.762 289.262 267.284C288.349 265.779 287.139 264.61 285.634 263.777C284.129 262.917 282.53 262.487 280.837 262.487C278.902 262.487 277.182 262.957 275.677 263.898C274.199 264.811 273.03 266.021 272.17 267.526C271.31 269.031 270.88 270.63 270.88 272.323C270.88 274.123 271.31 275.776 272.17 277.281C273.057 278.786 274.24 279.995 275.718 280.909C277.223 281.796 278.902 282.239 280.757 282.239Z" fill="#6949FF"/>
<mask id="path-21-inside-9_2225_9426" fill="white">
<path d="M0 225.072H112.872V321.82C112.872 330.725 105.653 337.944 96.7473 337.944H16.1246C7.21922 337.944 0 330.725 0 321.82V225.072Z"/>
</mask>
<path d="M0 225.072H112.872H0ZM112.872 337.944H0H112.872ZM16.1246 337.944C5.54946 337.944 -3.02335 329.371 -3.02335 318.796V225.072H3.02335V321.82C3.02335 330.725 8.88896 337.944 16.1246 337.944V337.944ZM112.872 225.072V337.944V225.072Z" fill="#876DFF" mask="url(#path-21-inside-9_2225_9426)"/>
</svg>
