<svg width="55" height="55" viewBox="0 0 55 55" fill="none" xmlns="http://www.w3.org/2000/svg">
<g filter="url(#filter0_i_2225_9818)">
<path d="M55 27.5C37.5 27.5 27.5 37.5 27.5 55C27.5 37.5 17.5 27.5 0 27.5C17.5 27.5 27.5 17.5 27.5 0C27.5 17.5 37.5 27.5 55 27.5Z" fill="#FFEB3E"/>
</g>
<path d="M27.5 6.46191C28.4545 12.3109 30.766 17.098 34.334 20.666C37.9018 24.2338 42.6886 26.5454 48.5371 27.5C42.6886 28.4546 37.9018 30.7662 34.334 34.334C30.7662 37.9018 28.4546 42.6886 27.5 48.5371C26.5454 42.6886 24.2338 37.9018 20.666 34.334C17.098 30.766 12.3109 28.4545 6.46191 27.5C12.3109 26.5455 17.098 24.234 20.666 20.666C24.234 17.098 26.5455 12.3109 27.5 6.46191Z" stroke="#FFCF37"/>
<defs>
<filter id="filter0_i_2225_9818" x="0" y="0" width="55" height="55" filterUnits="userSpaceOnUse" color-interpolation-filters="sRGB">
<feFlood flood-opacity="0" result="BackgroundImageFix"/>
<feBlend mode="normal" in="SourceGraphic" in2="BackgroundImageFix" result="shape"/>
<feColorMatrix in="SourceAlpha" type="matrix" values="0 0 0 0 0 0 0 0 0 0 0 0 0 0 0 0 0 0 127 0" result="hardAlpha"/>
<feOffset/>
<feGaussianBlur stdDeviation="3"/>
<feComposite in2="hardAlpha" operator="arithmetic" k2="-1" k3="1"/>
<feColorMatrix type="matrix" values="0 0 0 0 1 0 0 0 0 0.803922 0 0 0 0 0.196078 0 0 0 1 0"/>
<feBlend mode="normal" in2="shape" result="effect1_innerShadow_2225_9818"/>
</filter>
</defs>
</svg>
